<svg width="16" height="16" viewBox="0 0 16 16" fill="none" xmlns="http://www.w3.org/2000/svg">
<g clip-path="url(#clip0_7_4163)">
<path fill-rule="evenodd" clip-rule="evenodd" d="M10.4666 2.15618L8.12804 0.857666L5.78942 2.15618L3.21758 2.89164L2.48211 5.46349L1.18359 7.80211L2.48211 10.1407L3.21758 12.7125L5.78942 13.448L8.12804 14.7465L10.4666 13.448L13.0385 12.7125L13.774 10.1407L15.0725 7.80211L13.774 5.46349L13.0385 2.89164L10.4666 2.15618ZM11.5355 6.26455C11.837 5.91676 11.7994 5.39046 11.4516 5.08903C11.1038 4.78761 10.5775 4.82521 10.276 5.173L7.29471 8.61304L5.98 7.09608C5.67858 6.74828 5.15228 6.71069 4.80448 7.01211C4.45669 7.31353 4.41909 7.83983 4.72052 8.18763L6.66497 10.4312C6.82325 10.6139 7.05303 10.7188 7.29471 10.7188C7.53638 10.7188 7.76616 10.6139 7.92445 10.4312L11.5355 6.26455Z" fill="#3861FB"/>
</g>
<defs>
<clipPath id="clip0_7_4163">
<rect width="15" height="15" fill="white" transform="translate(0.734375 0.71875)"/>
</clipPath>
</defs>
</svg>
