<svg width="19" height="25" viewBox="0 0 19 25" fill="none" xmlns="http://www.w3.org/2000/svg">
<g clip-path="url(#clip0_12_1065)">
<path d="M16.4973 9.96565L12.0716 9.29088L10.0946 5.08622C10.0371 4.98383 9.95522 4.89896 9.8569 4.83999C9.75857 4.78102 9.64727 4.75 9.53402 4.75C9.42077 4.75 9.30947 4.78102 9.21115 4.83999C9.11275 4.89896 9.03085 4.98383 8.97332 5.08622L6.99269 9.29088L2.56697 9.96565C2.45156 9.98312 2.34311 10.0341 2.25388 10.1129C2.16464 10.1917 2.0982 10.295 2.06204 10.4114C2.02589 10.5277 2.02148 10.6523 2.04929 10.7711C2.07711 10.89 2.13606 10.9982 2.21946 11.0837L5.42266 14.3585L4.66702 18.9835C4.64732 19.1041 4.66018 19.2281 4.70413 19.3414C4.74808 19.4547 4.82138 19.5529 4.91573 19.6248C5.01008 19.6967 5.12172 19.7395 5.23803 19.7483C5.35435 19.7571 5.47069 19.7316 5.57391 19.6747L9.53215 17.4917L13.4903 19.6747C13.5935 19.7316 13.7099 19.7571 13.8262 19.7483C13.9425 19.7395 14.0541 19.6967 14.1485 19.6248C14.2429 19.5529 14.3162 19.4547 14.3601 19.3414C14.4041 19.2281 14.4169 19.1041 14.3973 18.9835L13.6415 14.3585L16.8448 11.0837C16.9281 10.9982 16.9872 10.8901 17.015 10.7714C17.0429 10.6527 17.0386 10.5282 17.0025 10.4119C16.9665 10.2956 16.9003 10.1922 16.8112 10.1133C16.7221 10.0345 16.6138 9.98333 16.4985 9.96565H16.4973Z" fill="#A6B0C3"/>
</g>
<defs>
<clipPath id="clip0_12_1065">
<rect width="18" height="24" fill="white" transform="translate(0.53125 0.25)"/>
</clipPath>
</defs>
</svg>
